<?xml version="1.0" encoding="utf-8"?>
<!-- Generator: Adobe Illustrator 28.1.0, SVG Export Plug-In . SVG Version: 6.00 Build 0)  -->
<svg version="1.1" id="Layer_1" xmlns="http://www.w3.org/2000/svg" xmlns:xlink="http://www.w3.org/1999/xlink" x="0px" y="0px"
	 viewBox="0 0 512 512" style="enable-background:new 0 0 512 512;" xml:space="preserve">
<style type="text/css">
	.st0{fill:#E8F6EF;stroke:#4C4C6D;stroke-width:11.8656;stroke-miterlimit:10;}
	.st1{fill:#4C4C6D;}
</style>
<ellipse class="st0" cx="255.87" cy="255.88" rx="247.45" ry="247.94"/>
<g>
	<path class="st1" d="M43.46,176.54v-8.15c0-0.04-0.02-0.07-0.04-0.1l-3.17-3.17c-0.03-0.03-0.05-0.08-0.04-0.13l1.6-9.11
		c0.01-0.07,0.07-0.12,0.14-0.12h17.13c0.04,0,0.07,0.02,0.1,0.04l11.65,11.65c0.03,0.03,0.04,0.06,0.04,0.1v4.79
		c0,1.05,1.1,1.73,2.04,1.27l15.1-7.42c0.02-0.01,0.04-0.01,0.06-0.01h4.28c0.87,0,1.6,0.67,1.68,1.54l0.16,1.94
		c0.06,0.76,0.93,1.17,1.56,0.73l4.8-3.31c0.81-0.56,1.86-0.64,2.74-0.22l6.61,3.16c0.05,0.03,0.12,0.01,0.16-0.03l1.65-1.65
		c0.06-0.06,0.15-0.06,0.2,0l5.97,5.97c0.69,0.69,1.73,0.89,2.63,0.51l3.9-1.64c0.78-0.33,1.67-0.3,2.44,0.08l17.05,8.52
		c0.01,0.01,0.03,0.01,0.04,0.01l15.62,2.6c0.01,0,0.01,0,0.02,0.01l18.7,6.23c0.56,0.19,1.17,0.23,1.75,0.11l18.67-3.73
		c0.01,0,0.02,0,0.03,0h28.93c0.45,0,0.87-0.2,1.16-0.54l4.58-5.36c0.34-0.4,0.83-0.62,1.35-0.62h2.65c0.38,0,0.74-0.14,1.02-0.4
		l29.45-27.12c0.83-0.76,1.91-1.19,3.04-1.19h2.66c0.02,0,0.04,0,0.06-0.01l20.27-9.1c0.03-0.02,0.07-0.02,0.11,0l26.04,9.11
		l26.07,10.43c0.02,0.01,0.03,0.02,0.05,0.03l5.58,5.58c0.63,0.63,1.46,1.04,2.35,1.17l7.69,1.06c0.02,0,0.03,0.01,0.05,0.02
		l26.06,14.33c0.01,0.01,0.02,0.01,0.03,0.01l5.17,1.29c0.02,0,0.04,0.01,0.05,0.03l13.02,10.42c0,0,0,0,0.01,0.01l13.04,9.13
		c0,0,0.01,0.01,0.01,0.01l9.34,8.3c1.52,1.35,2.39,3.29,2.39,5.33v0c0,2.63,1.45,5.05,3.78,6.29l6.61,3.52
		c0.03,0.02,0.06,0.05,0.07,0.08l3.86,11.59c0.02,0.06,0.07,0.1,0.14,0.1h7.85c0.04,0,0.08,0.02,0.11,0.05l12.92,13.98
		c2.86,3.1,2.77,7.91-0.22,10.89l-17.13,17.13c-2.4,2.4-4.36,5.21-5.78,8.29l-4.42,9.57c-0.81,1.75-2.28,3.12-4.08,3.79l-7.57,2.84
		c-0.03,0.01-0.06,0.01-0.1,0l-12.29-4.1c-2.11-0.7-4.42-0.45-6.33,0.69l-1.76,1.05c-2.32,1.39-3.36,4.21-2.49,6.77l0.68,2
		c0.02,0.07-0.01,0.15-0.08,0.18l-16.8,6.46c-0.02,0.01-0.04,0.02-0.05,0.03l-6.46,6.46c-0.03,0.03-0.06,0.04-0.1,0.04h-5.73
		c-0.96,0-1.92,0.06-2.87,0.17l-14.94,1.82c-3.31,0.4-6.38,1.9-8.74,4.25l-24.76,24.76c-1.5,1.5-2.46,3.46-2.73,5.57l-1.08,8.46
		c-0.26,2.02-1.53,3.77-3.37,4.64l-21.81,10.33c-0.01,0.01-0.03,0.02-0.04,0.03l-2.34,2.34c-1.29,1.29-2.8,2.35-4.45,3.13
		l-0.45,0.21c-2.25,1.07-4.9-0.32-5.32-2.78l-0.08-0.5c-0.27-1.6-0.27-3.23,0-4.84l2.2-13.18c0.01-0.04,0-0.08-0.03-0.11
		l-24.74-33.35c-0.01-0.01-0.02-0.02-0.03-0.03l-29.99-22.67c0,0-0.01-0.01-0.01-0.01l-14.82-14.82c-0.01-0.01-0.01-0.01-0.02-0.02
		l-19.05-13.32c-1.75-1.23-3.65-2.24-5.64-3.01l-20.47-7.96c-0.01,0-0.02-0.01-0.02-0.01l-15.25-5.97
		c-9.66-3.78-20.15-4.98-30.42-3.48l-16.4,2.39c-0.01,0-0.03,0-0.04,0c-0.68-0.08-1.35-0.2-2.01-0.37l-16.72-4.3
		c-0.03-0.01-0.05-0.02-0.07-0.05L67,237.97c-0.03-0.04-0.04-0.1-0.02-0.15l2.55-6.37c0.02-0.05,0.01-0.1-0.02-0.14l-26.23-32.47
		c-0.73-0.9-1.19-2-1.31-3.15l-1.53-13.94c-0.1-0.88,0.84-1.51,1.62-1.07l4.94,2.77c0.43,0.24,0.89-0.26,0.62-0.67l-4.12-6.17
		C43.47,176.6,43.46,176.57,43.46,176.54z"/>
	<path class="st1" d="M293.59,397.91c-2-0.47-4.05,0.4-5.14,2.14c-1.95,3.08-5.38,7-8.82,3.56c-4.93-4.93-8.69,12.25-15.69,13.08
		c-1.09,0.13-2.07,0.76-2.77,1.61c-1.89,2.3-4.39,6.32,0.19,7.34c6.52,1.45,40.45,5.37,44.36-2.46c3.91-7.83,6.52-12.04,3.91-20.37
		c-2.61-8.33-1.3-8.33-2.61-8.33c-0.52,0-6.02,2.38-8.7,3.56c-0.95,0.41-2,0.51-3,0.28L293.59,397.91z"/>
	<path class="st1" d="M403.24,363.3c3.12,0.97,8.12,1.89,14.3,0.86c2.89-0.48,5.82,0.6,7.76,2.79c6.67,7.53,20.41,24.15,17.42,30.13
		c-3.13,6.25-7.08,8.34-7.22,12.25c-0.07,1.87-1.37,3.42-3.22,3.73c-1.96,0.33-1.96,1.63-3.91,2.28c-2.15,0.72-7.89-8.28-15.95-7.65
		c-1.95,0.15-3.87-0.67-4.93-2.32c-1.51-2.34-4.76-5.51-11.74-8.3c0,0-16.96-7.83-14.35-14.35c1.86-4.66,10.39-13.32,15.11-17.88
		C398.28,363.13,400.87,362.57,403.24,363.3z"/>
</g>
</svg>
